<mxfile host="app.diagrams.net" agent="Mozilla/5.0 (X11; Linux x86_64) AppleWebKit/537.36 (KHTML, like Gecko) Chrome/135.0.0.0 Safari/537.36" version="26.2.13">
  <diagram id="C5RBs43oDa-KdzZeNtuy" name="Page-1">
    <mxGraphModel dx="443" dy="851" grid="1" gridSize="10" guides="1" tooltips="1" connect="1" arrows="1" fold="1" page="1" pageScale="1" pageWidth="827" pageHeight="1169" math="0" shadow="0">
      <root>
        <mxCell id="WIyWlLk6GJQsqaUBKTNV-0" />
        <mxCell id="WIyWlLk6GJQsqaUBKTNV-1" parent="WIyWlLk6GJQsqaUBKTNV-0" />
        <mxCell id="kwxghh_ln7Aoeq3JB2w9-1" value="" style="edgeStyle=none;curved=1;rounded=0;orthogonalLoop=1;jettySize=auto;html=1;fontSize=12;startSize=8;endSize=8;" edge="1" parent="WIyWlLk6GJQsqaUBKTNV-1" source="WIyWlLk6GJQsqaUBKTNV-3" target="kwxghh_ln7Aoeq3JB2w9-0">
          <mxGeometry relative="1" as="geometry" />
        </mxCell>
        <mxCell id="WIyWlLk6GJQsqaUBKTNV-3" value="Inicio" style="rounded=1;whiteSpace=wrap;html=1;fontSize=12;glass=0;strokeWidth=1;shadow=0;" parent="WIyWlLk6GJQsqaUBKTNV-1" vertex="1">
          <mxGeometry x="160" y="80" width="120" height="40" as="geometry" />
        </mxCell>
        <mxCell id="kwxghh_ln7Aoeq3JB2w9-3" value="" style="edgeStyle=none;curved=1;rounded=0;orthogonalLoop=1;jettySize=auto;html=1;fontSize=12;startSize=8;endSize=8;" edge="1" parent="WIyWlLk6GJQsqaUBKTNV-1" source="WIyWlLk6GJQsqaUBKTNV-6" target="kwxghh_ln7Aoeq3JB2w9-2">
          <mxGeometry relative="1" as="geometry" />
        </mxCell>
        <mxCell id="kwxghh_ln7Aoeq3JB2w9-5" value="" style="edgeStyle=none;curved=1;rounded=0;orthogonalLoop=1;jettySize=auto;html=1;fontSize=12;startSize=8;endSize=8;" edge="1" parent="WIyWlLk6GJQsqaUBKTNV-1" source="WIyWlLk6GJQsqaUBKTNV-6" target="kwxghh_ln7Aoeq3JB2w9-4">
          <mxGeometry relative="1" as="geometry" />
        </mxCell>
        <mxCell id="WIyWlLk6GJQsqaUBKTNV-6" value="Es mayor a cero" style="rhombus;whiteSpace=wrap;html=1;shadow=0;fontFamily=Helvetica;fontSize=12;align=center;strokeWidth=1;spacing=6;spacingTop=-4;" parent="WIyWlLk6GJQsqaUBKTNV-1" vertex="1">
          <mxGeometry x="160" y="371" width="120" height="100" as="geometry" />
        </mxCell>
        <mxCell id="kwxghh_ln7Aoeq3JB2w9-15" value="" style="edgeStyle=none;curved=1;rounded=0;orthogonalLoop=1;jettySize=auto;html=1;fontSize=12;startSize=8;endSize=8;" edge="1" parent="WIyWlLk6GJQsqaUBKTNV-1" source="kwxghh_ln7Aoeq3JB2w9-0" target="WIyWlLk6GJQsqaUBKTNV-6">
          <mxGeometry relative="1" as="geometry" />
        </mxCell>
        <mxCell id="kwxghh_ln7Aoeq3JB2w9-0" value="Solicitar ingreso de número" style="rounded=1;whiteSpace=wrap;html=1;" vertex="1" parent="WIyWlLk6GJQsqaUBKTNV-1">
          <mxGeometry x="160" y="170" width="120" height="60" as="geometry" />
        </mxCell>
        <mxCell id="kwxghh_ln7Aoeq3JB2w9-2" value="Imprimir &quot;El número es positivo&quot;" style="rounded=1;whiteSpace=wrap;html=1;" vertex="1" parent="WIyWlLk6GJQsqaUBKTNV-1">
          <mxGeometry x="160" y="555" width="120" height="60" as="geometry" />
        </mxCell>
        <mxCell id="kwxghh_ln7Aoeq3JB2w9-10" value="" style="edgeStyle=none;curved=1;rounded=0;orthogonalLoop=1;jettySize=auto;html=1;fontSize=12;startSize=8;endSize=8;" edge="1" parent="WIyWlLk6GJQsqaUBKTNV-1" source="kwxghh_ln7Aoeq3JB2w9-4" target="kwxghh_ln7Aoeq3JB2w9-9">
          <mxGeometry relative="1" as="geometry" />
        </mxCell>
        <mxCell id="kwxghh_ln7Aoeq3JB2w9-12" value="" style="edgeStyle=none;curved=1;rounded=0;orthogonalLoop=1;jettySize=auto;html=1;fontSize=12;startSize=8;endSize=8;entryX=0;entryY=0.5;entryDx=0;entryDy=0;" edge="1" parent="WIyWlLk6GJQsqaUBKTNV-1" source="kwxghh_ln7Aoeq3JB2w9-4" target="kwxghh_ln7Aoeq3JB2w9-14">
          <mxGeometry relative="1" as="geometry">
            <mxPoint x="581.4583333333333" y="423.54166666666674" as="targetPoint" />
          </mxGeometry>
        </mxCell>
        <mxCell id="kwxghh_ln7Aoeq3JB2w9-4" value="Es menor a cero" style="rhombus;whiteSpace=wrap;html=1;" vertex="1" parent="WIyWlLk6GJQsqaUBKTNV-1">
          <mxGeometry x="350" y="355" width="130" height="130" as="geometry" />
        </mxCell>
        <mxCell id="kwxghh_ln7Aoeq3JB2w9-6" value="No" style="text;html=1;align=center;verticalAlign=middle;resizable=0;points=[];autosize=1;strokeColor=none;fillColor=none;fontSize=16;" vertex="1" parent="WIyWlLk6GJQsqaUBKTNV-1">
          <mxGeometry x="260" y="391" width="40" height="30" as="geometry" />
        </mxCell>
        <mxCell id="kwxghh_ln7Aoeq3JB2w9-7" value="Yes" style="text;html=1;align=center;verticalAlign=middle;resizable=0;points=[];autosize=1;strokeColor=none;fillColor=none;fontSize=16;" vertex="1" parent="WIyWlLk6GJQsqaUBKTNV-1">
          <mxGeometry x="210" y="471" width="50" height="30" as="geometry" />
        </mxCell>
        <mxCell id="kwxghh_ln7Aoeq3JB2w9-9" value="Imprimir &quot;El número es negativo&quot;" style="rounded=1;whiteSpace=wrap;html=1;" vertex="1" parent="WIyWlLk6GJQsqaUBKTNV-1">
          <mxGeometry x="355" y="555" width="120" height="60" as="geometry" />
        </mxCell>
        <mxCell id="kwxghh_ln7Aoeq3JB2w9-13" value="No" style="text;html=1;align=center;verticalAlign=middle;resizable=0;points=[];autosize=1;strokeColor=none;fillColor=none;fontSize=16;" vertex="1" parent="WIyWlLk6GJQsqaUBKTNV-1">
          <mxGeometry x="474" y="391" width="40" height="30" as="geometry" />
        </mxCell>
        <mxCell id="kwxghh_ln7Aoeq3JB2w9-20" value="" style="edgeStyle=none;curved=1;rounded=0;orthogonalLoop=1;jettySize=auto;html=1;fontSize=12;startSize=8;endSize=8;" edge="1" parent="WIyWlLk6GJQsqaUBKTNV-1" source="kwxghh_ln7Aoeq3JB2w9-14" target="kwxghh_ln7Aoeq3JB2w9-17">
          <mxGeometry relative="1" as="geometry" />
        </mxCell>
        <mxCell id="kwxghh_ln7Aoeq3JB2w9-14" value="Imprimir &quot;El número es 0&quot;" style="rounded=1;whiteSpace=wrap;html=1;" vertex="1" parent="WIyWlLk6GJQsqaUBKTNV-1">
          <mxGeometry x="590" y="391" width="120" height="60" as="geometry" />
        </mxCell>
        <mxCell id="kwxghh_ln7Aoeq3JB2w9-16" value="Yes" style="text;html=1;align=center;verticalAlign=middle;resizable=0;points=[];autosize=1;strokeColor=none;fillColor=none;fontSize=16;" vertex="1" parent="WIyWlLk6GJQsqaUBKTNV-1">
          <mxGeometry x="414" y="485" width="50" height="30" as="geometry" />
        </mxCell>
        <mxCell id="kwxghh_ln7Aoeq3JB2w9-17" value="Imprimir negativo y positivo" style="shape=document;whiteSpace=wrap;html=1;boundedLbl=1;" vertex="1" parent="WIyWlLk6GJQsqaUBKTNV-1">
          <mxGeometry x="590" y="505" width="120" height="80" as="geometry" />
        </mxCell>
        <mxCell id="kwxghh_ln7Aoeq3JB2w9-19" value="" style="edgeStyle=none;curved=1;rounded=0;orthogonalLoop=1;jettySize=auto;html=1;fontSize=12;startSize=8;endSize=8;" edge="1" parent="WIyWlLk6GJQsqaUBKTNV-1" source="kwxghh_ln7Aoeq3JB2w9-18" target="kwxghh_ln7Aoeq3JB2w9-17">
          <mxGeometry relative="1" as="geometry" />
        </mxCell>
        <mxCell id="kwxghh_ln7Aoeq3JB2w9-18" value="Fin" style="rounded=1;whiteSpace=wrap;html=1;" vertex="1" parent="WIyWlLk6GJQsqaUBKTNV-1">
          <mxGeometry x="590" y="650" width="120" height="60" as="geometry" />
        </mxCell>
      </root>
    </mxGraphModel>
  </diagram>
</mxfile>
